<svg width="19" height="18" viewBox="0 0 19 18" fill="none" xmlns="http://www.w3.org/2000/svg">
<path d="M5.05151 2.19857C5.05501 2.64771 4.88165 3.08019 4.5689 3.40256C4.25615 3.72493 3.82912 3.91131 3.38009 3.92143C2.93198 3.90499 2.50732 3.71702 2.19386 3.39638C1.88039 3.07574 1.70209 2.64693 1.6958 2.19857C1.71528 1.76173 1.90014 1.34864 2.2129 1.04305C2.52565 0.73745 2.94291 0.562212 3.38009 0.552856C3.81598 0.562387 4.23177 0.73806 4.54245 1.04396C4.85313 1.34986 5.03523 1.76288 5.05151 2.19857ZM1.8758 6.98143C1.8758 5.99143 2.5058 6.14571 3.38009 6.14571C4.25437 6.14571 4.87152 5.99143 4.87152 6.98143V16.6243C4.87152 17.6271 4.24151 17.4214 3.38009 17.4214C2.51866 17.4214 1.8758 17.6271 1.8758 16.6243V6.98143Z" stroke="black" stroke-linecap="round" stroke-linejoin="round"/>
<path d="M7.46875 6.98145C7.46875 6.42859 7.67446 6.22288 7.99589 6.15859C8.31732 6.0943 9.42304 6.15859 9.80875 6.15859C10.1945 6.15859 10.3487 6.78859 10.3359 7.2643C10.6658 6.8215 11.1039 6.47076 11.6081 6.24565C12.1124 6.02054 12.6659 5.92859 13.2159 5.97859C13.7559 5.94558 14.2969 6.02654 14.8036 6.21623C15.3103 6.40591 15.7714 6.70008 16.157 7.07961C16.5426 7.45914 16.844 7.91554 17.0417 8.41917C17.2394 8.9228 17.3289 9.46239 17.3045 10.0029V16.5857C17.3045 17.5886 16.6873 17.3829 15.813 17.3829C14.9387 17.3829 14.3216 17.5886 14.3216 16.5857V11.4429C14.3442 11.1782 14.3096 10.9117 14.2201 10.6616C14.1306 10.4115 13.9883 10.1836 13.8029 9.9933C13.6176 9.80303 13.3934 9.65489 13.1457 9.55893C12.898 9.46297 12.6325 9.42144 12.3673 9.43716C12.1034 9.43046 11.841 9.4799 11.5976 9.58221C11.3542 9.68452 11.1353 9.83738 10.9554 10.0306C10.7755 10.2239 10.6387 10.4532 10.5541 10.7033C10.4694 10.9534 10.4389 11.2187 10.4645 11.4814V16.6243C10.4645 17.6272 9.83446 17.4214 8.96018 17.4214C8.08589 17.4214 7.46875 17.6272 7.46875 16.6243V6.98145Z" stroke="black" stroke-linecap="round" stroke-linejoin="round"/>
</svg>
