<svg width="15" height="14" viewBox="0 0 15 14" fill="none" xmlns="http://www.w3.org/2000/svg">
<g clip-path="url(#clip0_54_1272)">
<path d="M1 7C1 8.28558 1.38122 9.54229 2.09545 10.6112C2.80968 11.6801 3.82484 12.5132 5.01256 13.0052C6.20028 13.4972 7.50721 13.6259 8.76809 13.3751C10.029 13.1243 11.1872 12.5052 12.0962 11.5962C13.0052 10.6872 13.6243 9.52896 13.8751 8.26809C14.1259 7.00721 13.9972 5.70028 13.5052 4.51256C13.0132 3.32484 12.1801 2.30968 11.1112 1.59545C10.0423 0.881218 8.78558 0.5 7.5 0.5V7H1Z" stroke="white" stroke-linecap="round" stroke-linejoin="round"/>
<path d="M3.9599 3.46002L2.8999 2.40002" stroke="white" stroke-linecap="round" stroke-linejoin="round"/>
</g>
<defs>
<clipPath id="clip0_54_1272">
<rect width="14" height="14" fill="white" transform="translate(0.5)"/>
</clipPath>
</defs>
</svg>
