<svg width="211" height="211" viewBox="0 0 211 211" fill="none" xmlns="http://www.w3.org/2000/svg">
<g opacity="0.7">
<path d="M143.113 60.2001C142.553 56.5617 139.475 52.8037 136.596 50.9846C136.296 50.7851 135.997 50.6046 135.697 50.425C129.18 54.9389 117.265 62.2397 103.271 64.4588C102.192 64.6383 100.872 64.378 100.052 65.118C97.4741 67.4169 96.9545 75.4536 90.5774 75.6331C89.6967 77.8733 88.8978 80.0315 88.0381 81.8706C89.0805 80.4104 96.6983 81.795 98.633 82.2307C100.531 82.6506 108.718 84.8812 108.369 86.629C109.808 83.5292 109.249 80.3915 108.309 77.1122C119.724 74.9141 135.537 66.8375 143.113 60.2001Z" fill="#F5ED63"/>
<path d="M43.2791 93.9257C41.2488 95.8773 38.6854 97.1829 35.913 97.6776C33.1407 98.1722 30.2838 97.8337 27.7039 96.7047C25.124 95.5757 22.9368 93.707 21.4189 91.3349C19.901 88.9629 19.1206 86.194 19.1764 83.3784C19.2322 80.5628 20.1217 77.8269 21.7324 75.5169C23.3429 73.2068 25.6025 71.4262 28.2251 70.4004C30.8477 69.3745 33.7157 69.1494 36.4663 69.7534C39.2169 70.3575 41.7266 71.7636 43.678 73.7941C44.9748 75.1415 45.9934 76.7313 46.6753 78.4727C47.3572 80.2141 47.6891 82.0729 47.6522 83.9426C47.6151 85.8124 47.2098 87.6565 46.4594 89.3695C45.709 91.0825 44.6283 92.6308 43.2791 93.9257Z" fill="#F5ED63"/>
<path d="M196.289 149.88C197.728 144.903 202.527 146.422 205.166 143.422C205.645 148.001 203.126 152.599 198.568 152.819L196.289 149.88Z" fill="#F5ED63"/>
<path d="M87.7985 159.735C85.9794 160.795 82.5814 158.596 78.8633 154.397C78.9283 155.846 79.3392 157.259 80.0621 158.516C82.5814 163.234 82.4617 174.869 85.2603 174.052C86.0403 173.812 86.9598 169.853 87.7796 165.316C88.2039 163.124 88.7649 160.961 89.4592 158.838C89.1117 159.016 88.147 159.503 87.7985 159.735Z" fill="#FCB912"/>
<path d="M99.4336 59.4807C99.8007 60.548 100.341 61.5474 101.033 62.4388C102.792 62.1796 104.746 61.6463 105.111 60.8401C105.174 60.7043 105.228 60.5639 105.271 60.4202C104.811 61.8793 102.152 60.8999 99.4336 59.4807Z" fill="#FCB912"/>
<path d="M101.792 48.7452C98.2535 45.0271 86.7191 47.9453 78.9029 53.6033C71.0467 59.2803 73.3058 64.5982 83.4807 62.1597C82.8813 62.3392 76.3636 64.2979 72.1059 69.1928C65.8485 76.3897 71.2861 79.1484 78.2993 77.7092C86.6751 75.9898 93.872 69.113 96.3105 64.3546C97.4305 61.5511 98.1902 58.6167 98.5716 55.622C95.6534 53.2433 97.4326 51.084 99.0314 52.7237C99.8911 53.6033 100.851 53.1835 99.7914 50.3093C100.859 49.6469 102.141 49.4349 101.792 48.7452Z" fill="#FCB912"/>
<path d="M128.48 164.973C128.111 160.226 128.164 155.456 128.64 150.719C124.847 151.79 120.824 151.728 117.066 150.539C117.145 153.859 116.106 155.537 116.966 157.597C117.482 158.751 118.215 159.796 119.124 160.674C122.883 164.473 126.102 175.668 128.56 174.069C129.24 173.627 128.98 169.571 128.48 164.973Z" fill="#FCB912"/>
<path d="M90.8769 81.2311C90.6971 82.1588 90.4155 83.064 90.0371 83.9299C86.7788 82.3102 87.5388 81.251 90.8769 81.2311Z" fill="#FCB912"/>
<path d="M108.39 86.6047C108.309 86.9847 107.769 87.2251 106.87 87.3395C107.21 86.7201 107.51 86.1596 107.769 85.6001C108.229 85.9885 108.449 86.3286 108.39 86.6047Z" fill="#FCB912"/>
<path d="M117.345 117.274L115.245 123.291C115.166 120.953 115.086 118.654 115.045 116.395L117.345 117.274Z" fill="#FCB912"/>
<path d="M45.5512 159.755C40.183 150.565 33.0595 142.739 29.6941 144.035C25.1393 145.79 31.3191 159.865 34.863 166.012C40.8201 176.328 48.0171 183.324 51.0193 181.71C55.383 179.278 48.2543 164.381 45.5512 159.755Z" fill="#FCB912"/>
<path d="M82.4616 138.105C76.5443 127.869 69.3673 120.953 66.4082 122.674C63.4301 124.393 65.8287 134.069 71.7261 144.304C77.6234 154.539 84.8203 161.437 87.7785 159.735C90.7576 158.016 88.359 148.34 82.4616 138.105Z" fill="#FCB912"/>
<path d="M89.4575 158.835C88.7652 160.958 88.2043 163.121 87.7779 165.313C86.9675 169.852 86.0406 173.816 85.2586 174.049C82.4653 174.889 82.5703 163.237 80.0604 158.513C79.336 157.257 78.9249 155.844 78.8616 154.394" stroke="#393939" stroke-width="2" stroke-linecap="round" stroke-linejoin="round"/>
<path d="M158.646 83.6102C158.247 82.9646 157.712 82.4147 157.077 81.9992C156.442 81.5837 155.724 81.313 154.972 81.2061C154.22 81.0993 153.455 81.1589 152.73 81.3807C152.004 81.6026 151.336 81.9813 150.773 82.4902C150.551 81.7308 150.155 81.0329 149.619 80.4508C149.083 79.8688 148.42 79.4181 147.681 79.1339C146.943 78.8495 146.148 78.7393 145.36 78.8116C144.571 78.8839 143.811 79.1369 143.136 79.5509C142.553 79.9102 142.046 80.3813 141.645 80.937C141.243 81.4927 140.955 82.1222 140.798 82.7893C139.967 82.1635 138.968 81.8029 137.93 81.755C136.891 81.7072 135.863 81.9741 134.979 82.5208C134.095 83.0676 133.397 83.8688 132.976 84.8192C132.555 85.7695 132.432 86.8249 132.621 87.8469C131.946 87.6701 131.243 87.6304 130.553 87.7301C129.863 87.8298 129.2 88.0669 128.603 88.4274C127.929 88.8411 127.36 89.404 126.938 90.0726C126.516 90.7413 126.254 91.4978 126.171 92.284C126.088 93.0701 126.186 93.8649 126.459 94.6069C126.731 95.349 127.171 96.0185 127.743 96.5638C127.042 96.8401 126.41 97.2663 125.891 97.8125C125.373 98.3586 124.979 99.0117 124.74 99.7257C124.499 100.44 124.419 101.198 124.503 101.946C124.586 102.695 124.832 103.416 125.224 104.06C125.771 104.964 126.588 105.674 127.559 106.09C128.531 106.506 129.61 106.607 130.641 106.379L158.548 89.2682C159.251 88.8452 160.104 85.9647 158.646 83.6102Z" stroke="#393939" stroke-width="2" stroke-linecap="round" stroke-linejoin="round"/>
<path d="M137.476 91.546C138.136 92.1674 138.561 92.9968 138.68 93.895C138.8 94.7931 138.607 95.705 138.132 96.4772C137.658 97.2494 136.933 97.8346 136.078 98.1345C135.223 98.4343 134.29 98.4305 133.438 98.1236" stroke="#393939" stroke-width="2" stroke-linecap="round" stroke-linejoin="round"/>
<path d="M149.911 88.0284C149.799 88.8372 149.442 89.5918 148.886 90.1893C148.33 90.7867 147.602 91.1978 146.804 91.3663C146.006 91.5347 145.174 91.4522 144.424 91.1303C143.674 90.8082 143.042 90.2624 142.614 89.5673C142.432 89.2672 142.292 88.9446 142.194 88.6079" stroke="#393939" stroke-width="2" stroke-linecap="round" stroke-linejoin="round"/>
<path d="M150.77 82.4901C150.232 82.997 149.786 83.5925 149.45 84.2505" stroke="#393939" stroke-width="2" stroke-linecap="round" stroke-linejoin="round"/>
<path d="M129.564 96.2268C128.943 96.258 128.33 96.3717 127.74 96.5648" stroke="#393939" stroke-width="2" stroke-linecap="round" stroke-linejoin="round"/>
<path d="M140.795 82.7904C140.663 83.4419 140.642 84.1105 140.731 84.7691" stroke="#393939" stroke-width="2" stroke-linecap="round" stroke-linejoin="round"/>
<path d="M134.599 88.7746C134 88.3502 133.329 88.0363 132.618 87.8477" stroke="#393939" stroke-width="2" stroke-linecap="round" stroke-linejoin="round"/>
<path d="M165.763 95.1644C164.28 92.7217 161.219 92.286 160.686 92.686L132.758 109.819C131.959 110.298 130.862 113.201 132.379 115.655C132.774 116.296 133.304 116.844 133.932 117.259C134.56 117.675 135.272 117.947 136.017 118.057C136.763 118.166 137.523 118.111 138.245 117.896C138.966 117.681 139.633 117.31 140.195 116.81C140.515 117.911 141.196 118.873 142.126 119.544C143.056 120.215 144.183 120.555 145.329 120.512C146.476 120.468 147.575 120.043 148.451 119.303C149.328 118.564 149.931 117.552 150.168 116.43C150.993 117.062 151.99 117.43 153.028 117.486C154.066 117.542 155.097 117.283 155.986 116.743C156.874 116.202 157.579 115.406 158.007 114.458C158.434 113.51 158.565 112.455 158.384 111.432C159.491 111.712 160.661 111.617 161.708 111.161C162.756 110.705 163.623 109.913 164.172 108.912C164.721 107.909 164.922 106.753 164.742 105.624C164.562 104.496 164.013 103.459 163.181 102.676C163.89 102.407 164.531 101.986 165.059 101.441C165.586 100.897 165.988 100.243 166.235 99.526C166.48 98.8089 166.566 98.0465 166.485 97.2927C166.404 96.5389 166.157 95.8123 165.763 95.1644Z" stroke="#393939" stroke-width="2" stroke-linecap="round" stroke-linejoin="round"/>
<path d="M149.071 110.458C148.865 109.762 148.472 109.136 147.935 108.649C147.398 108.162 146.737 107.832 146.024 107.696C145.312 107.559 144.576 107.622 143.897 107.876C143.218 108.131 142.621 108.567 142.174 109.138C141.736 109.702 141.454 110.371 141.354 111.077" stroke="#393939" stroke-width="2" stroke-linecap="round" stroke-linejoin="round"/>
<path d="M157.847 100.986C157.078 100.721 156.244 100.699 155.461 100.923C154.679 101.148 153.984 101.609 153.473 102.243C152.962 102.877 152.657 103.653 152.604 104.465C152.549 105.278 152.747 106.088 153.169 106.784C153.349 107.086 153.572 107.362 153.829 107.604" stroke="#393939" stroke-width="2" stroke-linecap="round" stroke-linejoin="round"/>
<path d="M163.184 102.682C162.48 102.942 161.736 103.077 160.985 103.081" stroke="#393939" stroke-width="2" stroke-linecap="round" stroke-linejoin="round"/>
<path d="M141.302 115.367C141.003 115.901 140.63 116.389 140.195 116.819" stroke="#393939" stroke-width="2" stroke-linecap="round" stroke-linejoin="round"/>
<path d="M158.387 111.437C157.743 111.252 157.135 110.964 156.584 110.583" stroke="#393939" stroke-width="2" stroke-linecap="round" stroke-linejoin="round"/>
<path d="M150.227 114.293C150.323 115.006 150.303 115.728 150.171 116.435" stroke="#393939" stroke-width="2" stroke-linecap="round" stroke-linejoin="round"/>
<path d="M132.758 109.819L129.78 111.617" stroke="#393939" stroke-width="2" stroke-linecap="round" stroke-linejoin="round"/>
<path d="M130.639 106.38L127.7 108.159" stroke="#393939" stroke-width="2" stroke-linecap="round" stroke-linejoin="round"/>
<path d="M115.147 120.513L83.4009 139.784" stroke="#393939" stroke-width="2" stroke-linecap="round" stroke-linejoin="round"/>
<path d="M114.506 116.175L81.3813 136.306" stroke="#393939" stroke-width="2" stroke-linecap="round" stroke-linejoin="round"/>
<path d="M142.694 60.5602C149.804 59.9026 156.952 61.3131 163.279 64.622C169.606 67.9309 174.843 72.9973 178.358 79.2118C188.977 97.4612 183.415 121.031 165.943 131.848C155.014 138.615 151.982 135.037 130.76 141.086" stroke="#393939" stroke-width="2" stroke-linecap="round" stroke-linejoin="round"/>
<path d="M88.0071 159.58C97.7149 154.517 106.391 150.091 115.326 146.441" stroke="#393939" stroke-width="2" stroke-linecap="round" stroke-linejoin="round"/>
<path d="M89.1179 105.64C82.3818 111.037 75.0043 116.295 66.3882 122.653" stroke="#393939" stroke-width="2" stroke-linecap="round" stroke-linejoin="round"/>
<path d="M118.065 74.2539C113.876 80.5529 109.175 86.4967 104.012 92.0258" stroke="#393939" stroke-width="2" stroke-linecap="round" stroke-linejoin="round"/>
<path d="M135.677 50.445C139.055 52.3439 142.494 56.2426 143.113 60.2001C135.537 66.8375 119.725 74.9141 108.31 77.1122C109.249 80.3915 109.809 83.5302 108.37 86.629C108.718 84.8833 100.651 82.681 98.6335 82.2307C96.6642 81.7908 89.0726 80.4241 88.0386 81.8706C88.8983 80.0315 89.6982 77.8722 90.5779 75.6331C96.9549 75.4536 97.4641 67.4054 100.053 65.118C100.868 64.3979 102.152 64.6394 103.271 64.4588C117.257 62.1841 129.18 54.9431 135.697 50.425L135.677 50.445Z" stroke="#393939" stroke-width="2" stroke-linecap="round" stroke-linejoin="round"/>
<path d="M89.1826 85.4292C94.9058 85.3382 100.542 86.8352 105.466 89.7541" stroke="#393939" stroke-width="2" stroke-linecap="round" stroke-linejoin="round"/>
<path d="M105.179 60.6337C104.527 61.7737 102.008 60.8247 99.4336 59.479C99.8004 60.5464 100.341 61.5459 101.033 62.4371" stroke="#393939" stroke-width="2" stroke-linecap="round" stroke-linejoin="round"/>
<path d="M102.53 64.5335C101.137 64.1913 101.51 63.5131 101.033 62.4393C104.791 61.884 105.442 61.1922 105.288 59.309C105.062 56.5734 103.456 50.6131 101.792 48.7456" stroke="#393939" stroke-width="2" stroke-linecap="round" stroke-linejoin="round"/>
<path d="M108.31 77.1124C107.15 77.3329 106.031 77.4924 104.991 77.5932" stroke="#393939" stroke-width="2" stroke-linecap="round" stroke-linejoin="round"/>
<path d="M99.7937 50.3054C100.853 53.1838 99.8986 53.6037 99.0337 52.7198C97.4339 51.0812 95.6556 53.2446 98.5739 55.6181C98.1935 58.6139 97.4344 61.5492 96.3149 64.3539C93.8764 69.1123 86.6795 75.989 78.3037 77.7085C71.2863 79.1477 65.8487 76.389 72.1103 69.1921C76.368 64.2941 82.8857 62.3353 83.4851 62.1589C73.3102 64.5974 71.0532 59.2827 78.9073 53.6026C86.7256 47.9477 98.2579 45.0263 101.797 48.7445C102.135 49.4289 100.821 49.6703 99.7937 50.3054Z" stroke="#393939" stroke-width="2" stroke-linecap="round" stroke-linejoin="round"/>
<path d="M90.5781 75.6332C91.6339 72.7765 92.9946 70.042 94.6364 67.4768C95.2854 66.5057 95.8408 65.4751 96.2949 64.399" stroke="#393939" stroke-width="2" stroke-linecap="round" stroke-linejoin="round"/>
<path d="M104.042 91.9944C105.428 89.953 106.677 87.8215 107.78 85.6141" stroke="#393939" stroke-width="2" stroke-linecap="round" stroke-linejoin="round"/>
<path d="M147.472 49.4657C150.49 48.7456 152.975 50.1061 152.769 51.265C152.723 51.4973 152.627 51.7171 152.49 51.9099C152.351 52.1029 152.175 52.2643 151.97 52.384" stroke="#393939" stroke-width="2" stroke-linecap="round" stroke-linejoin="round"/>
<path d="M147.192 47.6265C150.37 46.8665 153.529 48.4663 152.169 50.1459" stroke="#393939" stroke-width="2" stroke-linecap="round" stroke-linejoin="round"/>
<path d="M142.774 58.7611C144.655 56.614 147.068 55.0006 149.771 54.0835" stroke="#393939" stroke-width="2" stroke-linecap="round" stroke-linejoin="round"/>
<path d="M147.352 51.6239C150.291 51.0245 152.227 52.1834 152.11 53.3234C151.966 54.7227 149.171 56.8421 146.812 55.4827" stroke="#393939" stroke-width="2" stroke-linecap="round" stroke-linejoin="round"/>
<path d="M144.873 46.5663C144.913 46.5265 146.133 44.828 145.593 44.2874C145.133 43.8276 138.496 49.2851 136.637 51.0245" stroke="#393939" stroke-width="2" stroke-linecap="round" stroke-linejoin="round"/>
<path d="M148.691 47.426C153.969 44.8877 155.386 41.8257 154.389 42.3873C151.061 44.0532 147.643 45.5348 144.153 46.8255C141.451 47.8535 138.913 49.2678 136.617 51.0244" stroke="#393939" stroke-width="2" stroke-linecap="round" stroke-linejoin="round"/>
<path d="M128.64 150.719C128.168 155.456 128.115 160.226 128.48 164.973C128.989 169.57 129.239 173.628 128.56 174.069C126.099 175.666 122.876 164.481 119.124 160.674C118.213 159.797 117.48 158.751 116.966 157.597C116.104 155.534 117.148 153.852 117.064 150.523" stroke="#393939" stroke-width="2" stroke-linecap="round" stroke-linejoin="round"/>
<path d="M82.4614 138.106C88.3661 148.336 90.7595 158.02 87.7783 159.73C84.8222 161.433 77.6232 154.533 71.7259 144.299C65.8285 134.065 63.432 124.395 66.408 122.672C69.3839 120.95 76.5515 127.865 82.4614 138.106Z" stroke="#393939" stroke-width="2" stroke-linecap="round" stroke-linejoin="round"/>
<path d="M52.119 176.075C50.6241 166.771 41.6385 151.292 34.3429 145.702C30.5744 142.783 27.8756 143.299 28.1842 148.195C28.7699 157.485 39.115 175.408 46.8367 180.668C51.1238 183.586 52.9671 181.356 52.119 176.075Z" stroke="#393939" stroke-width="2" stroke-linecap="round" stroke-linejoin="round"/>
<path d="M51.2176 181.605L57.1528 178.171C57.7246 177.723 58.1133 177.082 58.2459 176.368C58.3784 175.654 58.2458 174.916 57.8729 174.293C60.2348 177.85 64.8693 174.177 63.0102 171.094C64.7349 174.033 70.1578 172.136 67.9282 167.676C68.4335 168.331 69.1538 168.786 69.9618 168.961C70.7699 169.137 71.6141 169.022 72.3454 168.636C74.7598 167.095 73.8644 164.098 72.3664 159.22C69.5645 150.842 65.1197 143.106 59.2921 136.467C57.8916 134.799 56.2881 133.311 54.519 132.041C51.7215 130.306 48.5744 131.607 49.6567 136.327C48.7665 134.844 47.7221 133.874 45.9575 134.348C45.512 134.471 45.1012 134.697 44.7574 135.006C44.4135 135.315 44.146 135.7 43.9757 136.13C43.8053 136.559 43.7369 137.023 43.7757 137.484C43.8145 137.945 43.9594 138.39 44.1992 138.786C44.1992 138.786 42.1281 136.168 39.7809 138.027C39.198 138.481 38.8053 139.136 38.6795 139.864C38.5538 140.592 38.7039 141.341 39.1007 141.964C38.9117 141.63 38.6585 141.339 38.3558 141.104C38.053 140.868 37.7068 140.696 37.3369 140.595C36.9671 140.495 36.5811 140.47 36.2011 140.519C35.8211 140.568 35.4549 140.693 35.1233 140.885L29.5366 144.099" stroke="#393939" stroke-width="2" stroke-linecap="round" stroke-linejoin="round"/>
<path d="M196.289 149.88C193.823 151.242 191.459 152.778 189.213 154.478C182.614 159.574 176.179 165.972 177.036 167.092C177.894 168.213 185.694 163.617 192.309 158.516C194.526 156.774 196.61 154.869 198.546 152.818" stroke="#393939" stroke-width="2" stroke-linecap="round" stroke-linejoin="round"/>
<path d="M196.29 149.88C197.729 144.902 202.527 146.421 205.166 143.422C205.646 148.001 203.126 152.599 198.568 152.818L196.29 149.88Z" stroke="#393939" stroke-width="2" stroke-linecap="round" stroke-linejoin="round"/>
<path d="M190.042 153.851L193.131 157.856" stroke="#393939" stroke-width="2" stroke-linecap="round" stroke-linejoin="round"/>
<path d="M200.988 54.1234L198.369 59.9903H203.166L200.527 65.8583" stroke="#393939" stroke-width="2" stroke-linecap="round" stroke-linejoin="round"/>
<path d="M107.769 199.038L97.134 199.357" stroke="#393939" stroke-width="2" stroke-linecap="round" stroke-linejoin="round"/>
<path d="M102.612 204.515L102.292 193.88" stroke="#393939" stroke-width="2" stroke-linecap="round" stroke-linejoin="round"/>
<path d="M90.8769 81.2313C90.6971 82.1591 90.4155 83.0641 90.0371 83.9302C86.7788 82.3104 87.5388 81.2513 90.8769 81.2313Z" stroke="#393939" stroke-width="2" stroke-linecap="round" stroke-linejoin="round"/>
<path d="M108.37 86.6289C108.273 86.9911 107.76 87.2273 106.892 87.3448" stroke="#393939" stroke-width="2" stroke-linecap="round" stroke-linejoin="round"/>
<path d="M90.8772 81.2313C90.5497 83.5024 89.3968 85.5732 87.6388 87.0478C79.7827 93.2853 79.6609 102.021 85.3997 108.559" stroke="#393939" stroke-width="2" stroke-linecap="round" stroke-linejoin="round"/>
<path d="M29.1867 144.318L20.3291 149.34" stroke="#393939" stroke-width="2" stroke-linecap="round" stroke-linejoin="round"/>
<path d="M50.8115 181.825L42.8599 186.463" stroke="#393939" stroke-width="2" stroke-linecap="round" stroke-linejoin="round"/>
<path d="M39.0209 188.882L33.1235 192.32" stroke="#393939" stroke-width="2" stroke-linecap="round" stroke-linejoin="round"/>
<path d="M16.2114 151.919L10.1943 155.338" stroke="#393939" stroke-width="2" stroke-linecap="round" stroke-linejoin="round"/>
<path d="M34.8826 166.012L15.511 177.467" stroke="#393939" stroke-width="2" stroke-linecap="round" stroke-linejoin="round"/>
<path d="M11.6533 179.887L5.77588 183.305" stroke="#393939" stroke-width="2" stroke-linecap="round" stroke-linejoin="round"/>
<path d="M43.2796 93.9257C41.2493 95.8773 38.6859 97.1829 35.9135 97.6776C33.1411 98.1722 30.2843 97.8337 27.7044 96.7047C25.1245 95.5757 22.9373 93.707 21.4194 91.3349C19.9015 88.9629 19.1211 86.194 19.1769 83.3784C19.2327 80.5628 20.1221 77.8269 21.7328 75.5169C23.3434 73.2068 25.603 71.4262 28.2256 70.4004C30.8482 69.3745 33.7162 69.1494 36.4668 69.7534C39.2174 70.3575 41.7271 71.7636 43.6785 73.7941C44.9753 75.1415 45.9939 76.7314 46.6758 78.4727C47.3577 80.2141 47.6896 82.0729 47.6527 83.9427C47.6156 85.8124 47.2103 87.6565 46.4598 89.3695C45.7095 91.0825 44.6288 92.6308 43.2796 93.9257Z" stroke="#393939" stroke-width="2" stroke-linecap="round" stroke-linejoin="round"/>
<path d="M47.6371 84.5056C52.0554 86.605 54.6702 88.5995 54.2944 89.8592C53.6216 92.1339 43.6786 91.2584 32.0644 87.8993C20.4503 84.5402 11.5706 79.9708 12.233 77.6929C12.6109 76.3922 15.9711 76.113 20.9457 76.7334" stroke="#393939" stroke-width="2" stroke-linecap="round" stroke-linejoin="round"/>
<path d="M86.1848 99.3622C86.7643 103.001 88.8091 106.337 91.5626 107.199C100.161 109.889 115.051 116.415 115.051 116.415C115.237 126.711 116.169 138.039 115.172 149.88C119.94 151.887 125.291 152.008 130.145 150.219C130.985 139.045 131.523 128.329 131.324 118.434C131.279 115.971 130.709 113.547 129.651 111.323C128.592 109.099 127.071 107.127 125.187 105.54C117.418 99.1171 108.756 93.8578 99.4733 89.9272" stroke="#393939" stroke-width="2" stroke-linecap="round" stroke-linejoin="round"/>
<path d="M115.046 116.415L117.345 117.275L115.247 123.292" stroke="#393939" stroke-width="2" stroke-linecap="round" stroke-linejoin="round"/>
<path d="M115.587 141.983C120.447 143.651 125.68 143.907 130.68 142.723" stroke="#393939" stroke-width="2" stroke-linecap="round" stroke-linejoin="round"/>
<path d="M111.188 6.48462V9.82379" stroke="#393939" stroke-width="2" stroke-linecap="round" stroke-linejoin="round"/>
<path d="M117.685 12.9814H114.346" stroke="#393939" stroke-width="2" stroke-linecap="round" stroke-linejoin="round"/>
<path d="M111.188 19.4792V16.14" stroke="#393939" stroke-width="2" stroke-linecap="round" stroke-linejoin="round"/>
<path d="M104.692 12.9814H108.032" stroke="#393939" stroke-width="2" stroke-linecap="round" stroke-linejoin="round"/>
<path d="M114.346 12.9813C113.931 12.9824 113.52 12.9015 113.137 12.7432C112.752 12.5849 112.404 12.3523 112.111 12.0589C111.817 11.7655 111.585 11.417 111.427 11.0333C111.268 10.6498 111.187 10.2387 111.188 9.82373C111.189 10.2386 111.108 10.6496 110.95 11.0331C110.793 11.4167 110.559 11.7651 110.267 12.0586C109.973 12.352 109.624 12.5845 109.241 12.7429C108.858 12.9012 108.446 12.9823 108.032 12.9813C108.446 12.9804 108.858 13.0614 109.241 13.2198C109.625 13.3782 109.974 13.6108 110.267 13.9044C110.559 14.1979 110.793 14.5466 110.951 14.9302C111.108 15.3138 111.189 15.725 111.188 16.1399C111.187 15.7249 111.268 15.3137 111.427 14.9299C111.584 14.5462 111.817 14.1975 112.11 13.904C112.404 13.6105 112.752 13.3779 113.135 13.2195C113.52 13.0611 113.931 12.9802 114.346 12.9813Z" stroke="#393939" stroke-width="2" stroke-linecap="round" stroke-linejoin="round"/>
</g>
</svg>
