<svg width="182" height="182" viewBox="0 0 182 182" fill="none" xmlns="http://www.w3.org/2000/svg">
<g opacity="0.7">
<path d="M135.923 118.134C132.253 123.157 130.473 129.314 130.897 135.52C137.103 135.08 142.954 132.464 147.42 128.134L135.923 118.134Z" fill="#F5ED63"/>
<path d="M135.923 118.134C132.253 123.157 130.473 129.314 130.897 135.52C137.103 135.08 142.954 132.464 147.42 128.134L135.923 118.134Z" stroke="#515151" stroke-width="2" stroke-linecap="round" stroke-linejoin="round"/>
<path d="M130.318 113.259L158.795 138.024C171.543 123.368 178.509 103.919 177.312 82.6527C163.173 83.7395 149.595 88.6462 138.028 96.8487" stroke="#393939" stroke-width="2" stroke-linecap="round" stroke-linejoin="round"/>
<path d="M156.47 112.472C157.238 112.472 157.999 112.321 158.709 112.027C159.418 111.733 160.063 111.302 160.606 110.759C161.149 110.216 161.58 109.571 161.874 108.861C162.168 108.152 162.319 107.391 162.319 106.623C162.319 105.466 161.976 104.336 161.333 103.374C160.691 102.412 159.777 101.662 158.709 101.22C157.64 100.777 156.464 100.661 155.329 100.887C154.195 101.113 153.153 101.67 152.335 102.488C151.517 103.305 150.96 104.348 150.734 105.482C150.509 106.617 150.624 107.793 151.067 108.861C151.51 109.93 152.259 110.843 153.221 111.486C154.183 112.129 155.314 112.472 156.47 112.472Z" stroke="#393939" stroke-width="2" stroke-linecap="round" stroke-linejoin="round"/>
<path d="M76.6582 39.3191C74.5713 41.7402 73.5248 44.8873 73.7462 48.076C76.9342 47.8538 79.9056 46.3822 82.0145 43.981L76.6582 39.3191Z" fill="#F5ED63"/>
<path d="M76.6582 39.3191C74.5713 41.7402 73.5248 44.8873 73.7462 48.076C76.9342 47.8538 79.9056 46.3822 82.0145 43.981L76.6582 39.3191Z" stroke="#1C1C1C" stroke-width="2" stroke-linecap="round" stroke-linejoin="round"/>
<path d="M94.3906 34.9723C95.4815 31.0522 95.916 26.9786 95.6765 22.9166C86.383 23.5946 77.7292 27.901 71.5842 34.9059L87.1452 48.4385C89.2014 46.0736 90.9276 43.441 92.2767 40.6125C91.8103 40.5564 91.3627 40.395 90.9678 40.1407C90.5728 39.8863 90.2409 39.5455 89.9969 39.144C89.7529 38.7426 89.6033 38.2909 89.5594 37.8232C89.5155 37.3555 89.5785 36.8839 89.7435 36.4441C89.9085 36.0042 90.1713 35.6076 90.512 35.2842C90.8527 34.9607 91.2624 34.7189 91.7102 34.577C92.1581 34.4351 92.6323 34.3968 93.0971 34.4649C93.5619 34.5331 94.0051 34.706 94.3934 34.9705L94.3906 34.9723Z" fill="#F5ED63"/>
<path d="M95.6765 22.9166C86.383 23.5946 77.7292 27.901 71.5842 34.9059L87.1452 48.4385C93.2267 41.3797 96.2907 32.2136 95.6765 22.9166Z" stroke="#393939" stroke-width="2" stroke-linecap="round" stroke-linejoin="round"/>
<path d="M90.3089 35.4965C89.9407 35.9213 89.695 36.4384 89.598 36.9922C89.501 37.546 89.5564 38.1157 89.7584 38.6405C89.9603 39.1652 90.3011 39.6251 90.7443 39.9711C91.1876 40.317 91.7165 40.5359 92.2746 40.6043C93.1398 38.7916 93.848 36.9079 94.3912 34.9741C93.7651 34.5455 93.0033 34.3618 92.2506 34.4581C91.498 34.5544 90.807 34.924 90.3089 35.4965Z" stroke="#1C1C1C" stroke-width="2" stroke-linecap="round" stroke-linejoin="round"/>
<path d="M137.956 154.745C137.388 153.302 136.58 151.964 135.568 150.788C136.144 150.188 136.506 149.415 136.598 148.588C136.69 147.762 136.507 146.928 136.077 146.216C135.791 145.744 135.405 145.34 134.947 145.033C134.488 144.727 133.967 144.524 133.421 144.441C132.876 144.357 132.318 144.394 131.789 144.55C131.259 144.705 130.77 144.975 130.356 145.34C129.942 145.704 129.613 146.155 129.392 146.661C126.738 145.784 123.881 145.728 121.194 146.501C120.977 146.008 120.657 145.567 120.255 145.208C119.853 144.849 119.378 144.58 118.864 144.421C118.349 144.262 117.806 144.214 117.272 144.282C116.738 144.349 116.224 144.53 115.765 144.812C115.306 145.094 114.913 145.471 114.612 145.919C114.312 146.366 114.111 146.873 114.023 147.404C113.935 147.936 113.961 148.48 114.101 149.001C114.241 149.521 114.491 150.006 114.834 150.421C112.959 152.451 111.732 154.995 111.31 157.727C110.77 157.715 110.234 157.82 109.739 158.034C109.243 158.247 108.799 158.565 108.436 158.965C108.074 159.365 107.801 159.838 107.638 160.352C107.474 160.866 107.422 161.409 107.486 161.945C107.55 162.481 107.728 162.997 108.007 163.459C108.429 164.155 109.064 164.696 109.818 165.001C110.573 165.305 111.406 165.358 112.192 165.149C112.784 166.588 113.615 167.915 114.649 169.076C114.194 169.586 113.885 170.209 113.756 170.88C113.627 171.551 113.683 172.245 113.917 172.887C114.151 173.529 114.555 174.095 115.085 174.526C115.616 174.956 116.253 175.235 116.93 175.331C117.47 175.407 118.021 175.366 118.544 175.209C119.066 175.052 119.549 174.784 119.958 174.423C120.367 174.062 120.693 173.616 120.913 173.117C123.503 173.925 126.273 173.956 128.88 173.208C129.097 173.701 129.417 174.142 129.819 174.501C130.221 174.86 130.696 175.128 131.21 175.288C131.725 175.447 132.268 175.494 132.802 175.427C133.337 175.359 133.851 175.179 134.31 174.896C134.769 174.614 135.161 174.236 135.462 173.789C135.762 173.341 135.963 172.835 136.051 172.303C136.139 171.772 136.112 171.228 135.972 170.707C135.833 170.187 135.583 169.703 135.24 169.287C137.067 167.31 138.28 164.844 138.731 162.189C139.268 162.204 139.802 162.104 140.297 161.896C140.793 161.688 141.238 161.377 141.604 160.984C142.155 160.39 142.5 159.634 142.589 158.829C142.677 158.024 142.504 157.212 142.094 156.513C141.685 155.814 141.062 155.266 140.317 154.948C139.572 154.631 138.745 154.561 137.957 154.749L137.956 154.745Z" stroke="#1C1C1C" stroke-width="2" stroke-linecap="round" stroke-linejoin="round"/>
<path d="M124.963 167.15C126.93 167.15 128.817 166.368 130.207 164.977C131.598 163.586 132.38 161.7 132.38 159.733C132.38 157.766 131.598 155.88 130.207 154.489C128.817 153.098 126.93 152.317 124.963 152.317C122.996 152.317 121.11 153.098 119.719 154.489C118.328 155.88 117.547 157.766 117.547 159.733C117.547 161.7 118.328 163.586 119.719 164.977C121.11 166.368 122.996 167.15 124.963 167.15Z" stroke="#1C1C1C" stroke-width="2" stroke-linecap="round" stroke-linejoin="round"/>
<path d="M63.1852 93.1665L49.8901 103.542L93.9059 141.828L103.092 127.878L63.1852 93.1665Z" fill="#FCB912"/>
<path d="M63.1852 93.1665L49.8901 103.542L93.9059 141.828L103.092 127.878L63.1852 93.1665Z" stroke="#393939" stroke-width="2" stroke-linecap="round" stroke-linejoin="round"/>
<path d="M71.9263 122.71L83.1566 110.538" stroke="#393939" stroke-width="2" stroke-linecap="round" stroke-linejoin="round"/>
<path d="M68.449 119.685L79.7785 107.6" stroke="#393939" stroke-width="2" stroke-linecap="round" stroke-linejoin="round"/>
<path d="M65.1316 116.799L76.3628 104.629" stroke="#393939" stroke-width="2" stroke-linecap="round" stroke-linejoin="round"/>
<path d="M61.8677 113.863L73.0488 101.746" stroke="#393939" stroke-width="2" stroke-linecap="round" stroke-linejoin="round"/>
<path d="M57.7849 110.409L69.4811 98.6434" stroke="#393939" stroke-width="2" stroke-linecap="round" stroke-linejoin="round"/>
<path d="M54.0339 107.147L65.934 95.558" stroke="#393939" stroke-width="2" stroke-linecap="round" stroke-linejoin="round"/>
<path d="M89.7942 138.251L100.478 125.604" stroke="#393939" stroke-width="2" stroke-linecap="round" stroke-linejoin="round"/>
<path d="M86.2368 135.158L96.9721 122.555" stroke="#393939" stroke-width="2" stroke-linecap="round" stroke-linejoin="round"/>
<path d="M82.3337 131.691L93.4567 119.497" stroke="#393939" stroke-width="2" stroke-linecap="round" stroke-linejoin="round"/>
<path d="M78.8396 128.687L90.079 116.559" stroke="#393939" stroke-width="2" stroke-linecap="round" stroke-linejoin="round"/>
<path d="M75.5051 125.82L86.6635 113.589" stroke="#393939" stroke-width="2" stroke-linecap="round" stroke-linejoin="round"/>
<path d="M147.721 50.423C147.927 45.2042 147.853 40.5787 147.577 35.681C142.705 36.0851 138.104 36.6529 132.953 37.5829L147.721 50.423Z" fill="#FCB912"/>
<path d="M147.721 50.423C147.927 45.2042 147.853 40.5787 147.577 35.681C142.705 36.0851 138.104 36.6529 132.953 37.5829L147.721 50.423Z" stroke="#1C1C1C" stroke-width="2" stroke-linecap="round" stroke-linejoin="round"/>
<path d="M132.951 37.5828C101.496 43.1412 72.8841 59.2758 51.8513 83.3148L113.666 137.081C134.558 112.92 146.572 82.3476 147.718 50.4265L132.951 37.5828Z" stroke="#393939" stroke-width="2" stroke-linecap="round" stroke-linejoin="round"/>
<path d="M61.2558 113.428C50.7908 125.459 43.7419 140.606 42.4697 156.519C58.0689 153.034 72.0447 144.003 82.5398 131.943L61.2558 113.428Z" stroke="#393939" stroke-width="2" stroke-linecap="round" stroke-linejoin="round"/>
<path d="M67.5966 118.944C64.224 122.852 62.5214 127.929 62.8555 133.08C68.0036 132.697 72.7953 130.308 76.1989 126.426L67.5966 118.944Z" fill="#F5ED63"/>
<path d="M67.5966 118.944C64.224 122.852 62.5214 127.929 62.8555 133.08C68.0036 132.697 72.7953 130.308 76.1989 126.426L67.5966 118.944Z" stroke="#1C1C1C" stroke-width="2" stroke-linecap="round" stroke-linejoin="round"/>
<path d="M117.68 70.9068C116.142 69.5475 114.349 68.5062 112.407 67.8429C110.464 67.1796 108.409 66.9074 106.361 67.042C104.312 67.1767 102.311 67.7155 100.472 68.6275C98.6325 69.5394 96.9921 70.8064 95.6449 72.3554C94.2978 73.9044 93.2706 75.7047 92.6226 77.6526C91.9746 79.6005 91.7186 81.6574 91.8694 83.7047C92.0202 85.752 92.5748 87.7492 93.5011 89.5811C94.4275 91.4131 95.7074 93.0435 97.2669 94.3784C100.385 97.0471 104.431 98.3754 108.524 98.074C112.616 97.7725 116.424 95.8658 119.117 92.7692C121.81 89.6725 123.171 85.637 122.901 81.542C122.632 77.4469 120.755 73.6242 117.68 70.9068Z" stroke="#393939" stroke-width="2" stroke-linecap="round" stroke-linejoin="round"/>
<path d="M115.923 72.9273C114.647 71.8177 113.166 70.9703 111.563 70.4333C109.959 69.8964 108.266 69.6805 106.579 69.798C104.893 69.9154 103.246 70.3639 101.732 71.1179C100.219 71.8719 98.8692 72.9165 97.7596 74.1922C96.65 75.4679 95.8025 76.9496 95.2656 78.5529C94.7287 80.1561 94.5128 81.8493 94.6302 83.536C94.7477 85.2226 95.1962 86.8696 95.9502 88.3829C96.7041 89.8962 97.7488 91.2462 99.0245 92.3558C101.601 94.5967 104.962 95.7224 108.368 95.4852C111.775 95.2479 114.947 93.6673 117.188 91.0909C119.429 88.5145 120.555 85.1535 120.317 81.7471C120.08 78.3408 118.5 75.1682 115.923 72.9273ZM101.428 83.5579C101.208 83.8195 100.938 84.0347 100.634 84.191C100.33 84.3472 99.9979 84.4414 99.6571 84.4679C99.3163 84.4945 98.9737 84.453 98.6491 84.3458C98.3245 84.2386 98.0246 84.0679 97.7667 83.8436C97.5088 83.6193 97.2981 83.3458 97.1469 83.0393C96.9958 82.7327 96.9072 82.3991 96.8863 82.0579C96.8654 81.7168 96.9126 81.3749 97.0252 81.0521C97.1378 80.7294 97.3135 80.4323 97.5421 80.1782C97.9939 79.6759 98.625 79.3713 99.2993 79.33C99.9736 79.2887 100.637 79.514 101.147 79.9573C101.657 80.4007 101.972 81.0266 102.024 81.7001C102.077 82.3737 101.863 83.0409 101.428 83.5579Z" fill="#F5ED63"/>
<path d="M115.923 72.9273C114.647 71.8177 113.166 70.9703 111.563 70.4333C109.959 69.8964 108.266 69.6805 106.579 69.798C104.893 69.9154 103.246 70.3639 101.732 71.1179C100.219 71.8719 98.8692 72.9165 97.7596 74.1922C96.65 75.4679 95.8025 76.9496 95.2656 78.5529C94.7287 80.1561 94.5128 81.8493 94.6302 83.536C94.7477 85.2226 95.1962 86.8696 95.9502 88.3829C96.7041 89.8962 97.7488 91.2462 99.0245 92.3558C101.601 94.5967 104.962 95.7224 108.368 95.4852C111.775 95.2479 114.947 93.6673 117.188 91.0909C119.429 88.5145 120.555 85.1535 120.317 81.7471C120.08 78.3408 118.5 75.1682 115.923 72.9273Z" stroke="#1C1C1C" stroke-width="2" stroke-linecap="round" stroke-linejoin="round"/>
<path d="M101.175 79.9256C100.791 79.5907 100.316 79.3774 99.8104 79.3126C99.3049 79.2479 98.7916 79.3346 98.3354 79.5619C97.8792 79.7891 97.5007 80.1467 97.2479 80.5892C96.9951 81.0318 96.8794 81.5394 96.9154 82.0478C96.9513 82.5558 97.1369 83.0418 97.4486 83.4445C97.7604 83.8473 98.1843 84.1487 98.6671 84.3109C99.2321 84.5003 99.8453 84.4878 100.402 84.2757C100.959 84.0635 101.425 83.6648 101.721 83.1476C102.017 82.6303 102.124 82.0265 102.024 81.439C101.925 80.8514 101.625 80.3166 101.175 79.9256Z" stroke="#1C1C1C" stroke-width="2" stroke-linecap="round" stroke-linejoin="round"/>
<path d="M27.708 159.302L10.9495 174.998" stroke="#1C1C1C" stroke-width="2" stroke-linecap="round" stroke-linejoin="round"/>
<path d="M45.5427 128.46L28.7842 144.157" stroke="#1C1C1C" stroke-width="2" stroke-linecap="round" stroke-linejoin="round"/>
<path d="M81.9614 144.157L65.2019 159.852" stroke="#1C1C1C" stroke-width="2" stroke-linecap="round" stroke-linejoin="round"/>
<path d="M47.7112 159.302L30.9526 174.998" stroke="#1C1C1C" stroke-width="2" stroke-linecap="round" stroke-linejoin="round"/>
<path d="M28.4464 67.6275C25.0773 67.846 21.8634 69.1237 19.2637 71.2779C16.6641 73.4322 14.8118 76.3529 13.9713 79.6228C13.1308 82.8928 13.3451 86.3447 14.5837 89.4855C15.8223 92.6263 18.0218 95.2954 20.868 97.1115C21.9307 97.772 22.8031 98.6978 23.3993 99.7978C23.9956 100.898 24.2952 102.134 24.2686 103.385H35.691C35.691 100.79 36.1814 98.482 38.6739 96.733C41.5391 94.7291 43.6697 91.8426 44.7404 88.5142C45.8111 85.1858 45.763 81.5985 44.6035 78.3C43.4445 75.0013 41.2378 72.1726 38.3205 70.2455C35.4031 68.3185 31.9353 67.399 28.4464 67.6275Z" stroke="#393939" stroke-width="2" stroke-linecap="round" stroke-linejoin="round"/>
<path d="M24.2688 103.385C24.2688 104.9 24.8705 106.353 25.9416 107.424C27.0126 108.495 28.4653 109.097 29.98 109.097C31.4947 109.097 32.9473 108.495 34.0184 107.424C35.0894 106.353 35.6911 104.9 35.6911 103.385H24.2688Z" fill="#F5ED63"/>
<path d="M24.2688 103.385C24.2688 104.9 24.8705 106.353 25.9416 107.424C27.0126 108.495 28.4653 109.097 29.98 109.097C31.4947 109.097 32.9473 108.495 34.0184 107.424C35.0894 106.353 35.6911 104.9 35.6911 103.385H24.2688Z" stroke="#393939" stroke-width="2" stroke-linecap="round" stroke-linejoin="round"/>
<path d="M28.4695 82.3157C28.0379 83.3316 27.8154 84.4241 27.8154 85.528C27.8154 86.6318 28.0379 87.7243 28.4695 88.7403C28.9011 87.7243 29.1236 86.6318 29.1236 85.528C29.1236 84.4241 28.9011 83.3316 28.4695 82.3157Z" stroke="#393939" stroke-width="2" stroke-linecap="round" stroke-linejoin="round"/>
<path d="M31.6049 82.3159C31.1732 83.3318 30.9507 84.4244 30.9507 85.5282C30.9507 86.6321 31.1732 87.7246 31.6049 88.7405C32.0364 87.7245 32.2588 86.632 32.2588 85.5282C32.2588 84.4244 32.0364 83.3319 31.6049 82.3159Z" stroke="#393939" stroke-width="2" stroke-linecap="round" stroke-linejoin="round"/>
<path d="M31.5925 103.386V94.1548C31.5925 90.0871 34.772 89.7349 34.772 85.528C34.772 83.071 33.923 80.9944 33.043 80.9944C32.3751 80.9944 31.9929 81.3038 31.6034 82.3157C31.1339 81.6314 30.7043 81.0717 30.0355 81.0717C29.6867 81.1197 29.3572 81.2604 29.0813 81.4792C28.8055 81.698 28.5935 81.9869 28.4676 82.3157C27.2846 79.9233 25.0096 81.0008 25.3162 85.528C25.5801 89.471 28.4676 90.1599 28.4676 94.1548V103.386" stroke="#393939" stroke-width="2" stroke-linecap="round" stroke-linejoin="round"/>
<path d="M50.583 59.3446L42.4385 67.9669" stroke="#393939" stroke-width="2" stroke-linecap="round" stroke-linejoin="round"/>
<path d="M36.4835 52.1802L33.4204 64.0857" stroke="#393939" stroke-width="2" stroke-linecap="round" stroke-linejoin="round"/>
<path d="M19.3284 52.1847L22.9429 63.7572" stroke="#393939" stroke-width="2" stroke-linecap="round" stroke-linejoin="round"/>
<path d="M4.55005 62.7047L14.6083 69.3896" stroke="#393939" stroke-width="2" stroke-linecap="round" stroke-linejoin="round"/>
<path d="M8.94287 138.169L15.7033 144.929" stroke="#393939" stroke-width="2" stroke-linecap="round" stroke-linejoin="round"/>
<path d="M8.94287 144.929L15.7033 138.169" stroke="#393939" stroke-width="2" stroke-linecap="round" stroke-linejoin="round"/>
<path d="M155.479 154.794L158.927 158.243" stroke="#393939" stroke-width="2" stroke-linecap="round" stroke-linejoin="round"/>
<path d="M155.479 158.243L158.927 154.794" stroke="#393939" stroke-width="2" stroke-linecap="round" stroke-linejoin="round"/>
<path d="M147.642 11.3253H157.203" stroke="#393939" stroke-width="2" stroke-linecap="round" stroke-linejoin="round"/>
<path d="M152.422 16.1064V6.54504" stroke="#393939" stroke-width="2" stroke-linecap="round" stroke-linejoin="round"/>
<path d="M159.712 49.4801H164.928" stroke="#515151" stroke-width="2" stroke-linecap="round" stroke-linejoin="round"/>
<path d="M162.321 52.0881V46.8729" stroke="#515151" stroke-width="2" stroke-linecap="round" stroke-linejoin="round"/>
</g>
</svg>
