<svg width="82" height="20" viewBox="0 0 82 20" fill="none" xmlns="http://www.w3.org/2000/svg">
<path d="M53.7052 0.666992H60.4646L62.1384 12.1331H62.7107L65.0446 0.666992H70.2846L72.6405 12.1331H73.2128L74.8638 0.666992H81.6452L78.2326 19.333H69.227L67.9499 11.2889H67.3776L66.1006 19.333H57.117L53.7043 0.666992H53.7052Z" fill="white"/>
<path d="M0.354858 10C0.354858 3.9511 4.53489 0 10.8822 0C15.5491 0 20.3706 2.07564 20.8786 8.68242H14.5086C14.0883 6.7405 12.7836 5.82574 10.8814 5.82574C8.73606 5.82574 6.98909 7.41078 6.98909 10C6.98909 12.5892 8.73606 14.1743 10.8814 14.1743C12.7836 14.1743 14.0883 13.2595 14.5086 11.2725H20.8786C20.3697 17.9244 15.615 20 10.8822 20C4.53489 19.9992 0.354858 16.0489 0.354858 10Z" fill="white"/>
<path d="M38.9214 13.9552C38.9214 17.0441 36.8517 19.333 30.9288 19.333H19.391V0.666992H31.3694C37.05 0.666992 38.4596 3.22258 38.4596 5.60013C38.4596 7.97768 37.4028 8.62253 36.1477 9.37813V9.77849C38.1076 10.6005 38.9222 11.9116 38.9222 13.956L38.9214 13.9552ZM26.0407 5.96521V8.23201H30.5548C31.8978 8.23201 32.0961 7.3435 32.0961 7.12117C32.0961 6.72081 31.8978 5.96603 30.5548 5.96603H26.0407V5.96521ZM32.1839 13.1208C32.1839 12.7205 31.9636 11.9206 30.6426 11.9206H26.0407V14.3654H30.6426C31.9636 14.3654 32.1839 13.4539 32.1839 13.1208Z" fill="white"/>
<path d="M56.3512 6.2663H49.7893V19.333H43.1177V6.2663H36.5778V0.666992H56.3504V6.26712L56.3512 6.2663Z" fill="white"/>
</svg>
